<?xml version="1.0" encoding="iso-8859-1"?>
<!-- Uploaded to: SVG Repo, www.svgrepo.com, Generator: SVG Repo Mixer Tools -->
<svg version="1.1" id="Layer_1" xmlns="http://www.w3.org/2000/svg" xmlns:xlink="http://www.w3.org/1999/xlink" 
	 viewBox="0 0 512 512" xml:space="preserve">
<path style="fill:#54CE8E;" d="M62.629,339.797H45.114c-19.535,0-35.371-15.836-35.371-35.371V146.203
	c0-7.557,6.127-13.684,13.684-13.684h443.587c12.858,0,23.625,9.737,24.915,22.529l14.35,142.371
	c2.042,22.766-15.89,42.377-38.747,42.377h-42.786"/>
<g>
	<rect x="194.6" y="132.519" style="fill:#D3EFFD;" width="103.661" height="207.282"/>
	<path style="fill:#D3EFFD;" d="M448.302,234.505H346.339c-9.579,0-17.344-7.765-17.344-17.344l0.884-46.498
		c0.076-3.98,3.324-7.166,7.304-7.166h114.95c6.304,0,11.584,4.775,12.217,11.047l2.952,39.18
		C468.303,224.888,459.511,234.505,448.302,234.505z"/>
	<path style="fill:#D3EFFD;" d="M147.011,234.505H46.318c-3.755,0-6.799-3.044-6.799-6.799v-59.556c0-3.755,3.044-6.799,6.799-6.799
		h100.693c3.755,0,6.799,3.044,6.799,6.799v59.556C153.809,231.461,150.766,234.505,147.011,234.505z"/>
</g>
<path style="fill:#205131;" d="M506.012,295.304H9.743v9.648c0,19.535,15.836,35.371,35.371,35.371h17.515h362.117h42.786
	c22.857,0,40.789-19.612,38.747-42.377L506.012,295.304z"/>
<path style="fill:#FFD578;" d="M467.38,295.304h38.685l-4.74-47.023h-26.251c-4.249,0-7.694,3.444-7.694,7.694V295.304z"/>
<circle style="fill:#3E3B43;" cx="104.141" cy="339.801" r="41.511"/>
<circle style="fill:#D3EFFD;" cx="104.141" cy="339.801" r="16.358"/>
<circle style="fill:#3E3B43;" cx="383.237" cy="339.801" r="41.511"/>
<circle style="fill:#D3EFFD;" cx="383.237" cy="339.801" r="16.358"/>
<g>
	<rect x="194.6" y="295.098" style="fill:#2D774E;" width="103.661" height="45.234"/>
	<rect x="194.6" y="132.519" style="fill:#2D774E;" width="103.661" height="24.779"/>
</g>
<g>
	<rect x="246.431" y="157.301" style="opacity:0.5;fill:#FFFFFF;enable-background:new    ;" width="51.829" height="137.797"/>
	<polygon style="opacity:0.5;fill:#FFFFFF;enable-background:new    ;" points="404.744,163.497 351.747,234.505 398.187,234.505 
		450.655,163.497 	"/>
	<polygon style="opacity:0.5;fill:#FFFFFF;enable-background:new    ;" points="102.384,162.146 49.388,234.505 95.828,234.505 
		148.294,162.146 	"/>
</g>
<path d="M102.054,314.866c-13.245,0-24.019,10.776-24.019,24.019c0,13.245,10.776,24.02,24.019,24.02s24.019-10.776,24.019-24.02
	C126.074,325.641,115.299,314.866,102.054,314.866z M102.054,347.589c-4.799,0-8.703-3.905-8.703-8.704s3.904-8.703,8.703-8.703
	c4.799,0,8.703,3.905,8.703,8.703C110.758,343.684,106.853,347.589,102.054,347.589z"/>
<path d="M381.149,314.866c-13.245,0-24.019,10.776-24.019,24.019c0,13.245,10.776,24.02,24.019,24.02s24.019-10.776,24.019-24.02
	C405.169,325.641,394.393,314.866,381.149,314.866z M381.149,347.589c-4.799,0-8.703-3.905-8.703-8.704s3.904-8.703,8.703-8.703
	c4.799,0,8.703,3.905,8.703,8.703C389.853,343.684,385.949,347.589,381.149,347.589z"/>
<path d="M511.812,295.74l-0.266-2.639c-0.001-0.012-0.002-0.026-0.004-0.038l-4.683-46.46c-0.001-0.012-0.002-0.025-0.004-0.037
	l-9.394-93.199c-1.69-16.772-15.677-29.421-32.533-29.421H296.169H192.511H7.658c-4.23,0-7.658,3.429-7.658,7.658v171.908
	c0,23.726,19.302,43.029,43.029,43.029h10.456c3.689,23.487,24.062,41.511,48.569,41.511s44.88-18.023,48.569-41.511h181.956
	c3.689,23.487,24.062,41.511,48.569,41.511c24.507,0,44.88-18.023,48.569-41.511h35.728c13.039,0,25.564-5.519,34.363-15.143
	C508.608,321.778,512.986,308.81,511.812,295.74z M495.458,286.208h-22.506v-31.181h19.363L495.458,286.208z M482.224,154.904
	l8.549,84.806h-25.477c-4.23,0-7.658,3.429-7.658,7.658v38.839H303.828V139.264h161.101
	C473.89,139.264,481.325,145.988,482.224,154.904z M332.579,331.227h-28.753v-29.703h45.411
	C340.527,308.975,334.437,319.405,332.579,331.227z M133.965,301.524h50.887v29.703h-34.229
	C148.766,319.405,142.677,308.975,133.965,301.524z M288.511,164.044v122.691h-34.168V164.044H288.511z M200.169,302.05h38.858
	v25.092h-38.858V302.05z M254.343,302.05h34.168v25.092h-34.168L254.343,302.05L254.343,302.05z M239.027,286.734h-38.858v-122.69
	h38.858L239.027,286.734L239.027,286.734z M288.511,139.264v9.462h-88.342v-9.462H288.511z M184.853,139.264v146.943H15.316V139.264
	H184.853z M15.316,303.514v-1.991h54.827c-8.711,7.452-14.801,17.88-16.658,29.703H43.029
	C27.748,331.227,15.316,318.795,15.316,303.514z M102.054,372.737c-18.667,0-33.852-15.187-33.852-33.852
	c0-18.666,15.186-33.852,33.852-33.852s33.852,15.187,33.852,33.852C135.907,357.551,120.722,372.737,102.054,372.737z
	 M381.149,372.737c-18.667,0-33.852-15.187-33.852-33.852c0-18.666,15.186-33.852,33.852-33.852s33.852,15.187,33.852,33.852
	C415.001,357.551,399.816,372.737,381.149,372.737z M465.446,331.227h-35.728c-1.857-11.822-7.946-22.252-16.658-29.703h83.592
	c-0.332,7.251-3.143,14.069-8.147,19.542C482.514,327.618,474.325,331.227,465.446,331.227z"/>
<path d="M344.254,241.251h101.963c7.487,0,14.678-3.169,19.73-8.695c5.039-5.511,7.552-12.932,6.904-20.369l-2.95-39.131
	c-0.005-0.064-0.01-0.129-0.017-0.192c-1.03-10.226-9.557-17.938-19.837-17.938H327.93c-4.173,0-7.578,3.34-7.657,7.512
	l-1.021,53.664c-0.001,0.048-0.001,0.097-0.001,0.146C319.251,230.035,330.468,241.251,344.254,241.251z M335.445,170.243h114.602
	c2.358,0,4.318,1.75,4.59,4.083l2.944,39.061c0.002,0.037,0.005,0.072,0.009,0.108c0.289,3.232-0.757,6.33-2.947,8.724
	c-2.189,2.394-5.181,3.714-8.426,3.714H344.254c-5.32,0-9.651-4.312-9.685-9.624L335.445,170.243z"/>
<path d="M37.433,241.251h114.292c4.23,0,7.658-3.429,7.658-7.658v-73.155c0-4.229-3.428-7.658-7.658-7.658H37.433
	c-4.23,0-7.658,3.429-7.658,7.658v73.155C29.775,237.822,33.204,241.251,37.433,241.251z M45.092,168.097h98.976v57.839H45.092
	V168.097z"/>
</svg>