<?xml version="1.0" standalone="no"?>
<!DOCTYPE svg PUBLIC "-//W3C//DTD SVG 20010904//EN"
 "http://www.w3.org/TR/2001/REC-SVG-20010904/DTD/svg10.dtd">
<svg version="1.0" xmlns="http://www.w3.org/2000/svg"
 width="512.000000pt" height="512.000000pt" viewBox="0 0 512.000000 512.000000"
 preserveAspectRatio="xMidYMid meet">

<g transform="translate(0.000000,512.000000) scale(0.100000,-0.100000)"
fill="#000000" stroke="none">
<path d="M560 3987 c-49 -16 -133 -102 -148 -153 -7 -23 -12 -67 -12 -98 l0
-56 -56 0 c-87 0 -133 -18 -189 -75 -32 -31 -55 -65 -63 -91 -17 -59 -17
-1929 0 -1988 16 -55 99 -138 154 -154 26 -8 112 -12 235 -12 l194 0 24 -45
c33 -62 99 -121 179 -158 61 -29 76 -32 162 -32 86 0 101 3 162 32 80 37 146
96 179 158 l24 45 1235 0 1235 0 24 -45 c33 -62 99 -121 179 -158 61 -29 76
-32 162 -32 86 0 101 3 162 32 80 37 146 96 179 158 l24 45 114 0 c62 0 132 5
155 12 55 16 138 99 154 154 17 59 17 1929 0 1986 -6 22 -31 62 -55 88 -51 57
-108 80 -195 80 l-58 0 0 56 c0 81 -18 129 -67 184 -78 87 115 80 -2097 79
-1399 -1 -1971 -4 -1996 -12z m3953 -158 c32 -14 47 -49 47 -104 l0 -45 -2000
0 -2000 0 0 44 c0 59 14 94 42 106 35 14 3881 13 3911 -1z m-593 -924 l0 -616
25 -24 24 -25 456 0 455 0 0 -200 0 -200 -201 0 c-189 0 -203 1 -231 21 -44
31 -141 59 -208 59 -67 0 -164 -28 -208 -59 -27 -19 -44 -21 -151 -21 l-121 0
0 455 0 456 -25 24 -24 25 -511 0 -511 0 -24 -25 -25 -24 0 -456 0 -455 -681
0 c-679 0 -681 0 -711 21 -44 31 -141 59 -208 59 -67 0 -164 -28 -208 -59 -29
-20 -40 -21 -311 -21 l-281 0 0 805 c0 570 3 811 11 829 6 13 21 29 33 34 14
7 605 11 1829 11 l1807 1 0 -615z m935 590 l25 -24 0 -536 0 -535 -400 0 -400
0 0 560 0 560 375 0 376 0 24 -25z m-1735 -1415 l0 -560 -160 0 -160 0 0 560
0 560 160 0 160 0 0 -560z m480 0 l0 -560 -160 0 -160 0 0 560 0 560 160 0
160 0 0 -560z m-2451 -350 c81 -41 125 -115 125 -210 0 -138 -96 -234 -234
-234 -138 0 -234 96 -234 234 0 115 68 202 179 231 43 11 122 1 164 -21z
m3200 0 c81 -41 125 -115 125 -210 0 -138 -96 -234 -234 -234 -138 0 -234 96
-234 234 0 115 68 202 179 231 43 11 122 1 164 -21z m-3695 -97 c-8 -25 -14
-62 -14 -80 l0 -34 -175 3 c-164 3 -176 4 -196 25 -16 15 -24 38 -27 77 l-4
56 215 0 215 0 -14 -47z m1986 -33 l0 -80 -600 0 -600 0 0 33 c0 19 -6 55 -14
80 l-14 47 614 0 614 0 0 -80z m1214 33 c-8 -25 -14 -61 -14 -80 0 -32 -1 -33
-40 -33 l-40 0 0 80 0 80 54 0 54 0 -14 -47z m1024 -9 c-7 -85 -26 -98 -143
-102 l-95 -4 0 34 c0 19 -6 56 -14 81 l-14 47 135 0 135 0 -4 -56z"/>
<path d="M425 3335 l-25 -24 0 -431 0 -431 25 -24 24 -25 991 0 991 0 24 25
25 24 0 431 0 431 -25 24 -24 25 -991 0 -991 0 -24 -25z m1895 -215 l0 -80
-880 0 -880 0 0 80 0 80 880 0 880 0 0 -80z m-1440 -400 l0 -160 -160 0 -160
0 0 160 0 160 160 0 160 0 0 -160z m480 0 l0 -160 -160 0 -160 0 0 160 0 160
160 0 160 0 0 -160z m480 0 l0 -160 -160 0 -160 0 0 160 0 160 160 0 160 0 0
-160z m480 0 l0 -160 -160 0 -160 0 0 160 0 160 160 0 160 0 0 -160z"/>
<path d="M2665 3335 c-25 -24 -25 -26 -25 -215 0 -189 0 -191 25 -215 l24 -25
511 0 511 0 24 25 c25 24 25 26 25 215 0 189 0 191 -25 215 l-24 25 -511 0
-511 0 -24 -25z m935 -215 l0 -80 -400 0 -400 0 0 80 0 80 400 0 400 0 0 -80z"/>
</g>
</svg>
